<?xml version="1.0" encoding="UTF-8"?>
<svg id="Layer_1" xmlns="http://www.w3.org/2000/svg" version="1.1" xmlns:xlink="http://www.w3.org/1999/xlink" viewBox="0 0 450 360">
  <!-- Generator: Adobe Illustrator 29.2.1, SVG Export Plug-In . SVG Version: 2.1.0 Build 116)  -->
  <defs>
    <style>
      .st0 {
        fill: #fff;
      }

      .st1 {
        fill: url(#Dégradé_sans_nom_51);
      }

      .st2 {
        fill: url(#Dégradé_sans_nom_5);
      }
    </style>
    <linearGradient id="Dégradé_sans_nom_5" data-name="Dégradé sans nom 5" x1="446.75" y1="208.02" x2="247.05" y2="-65.26" gradientUnits="userSpaceOnUse">
      <stop offset="0" stop-color="#02d35b"/>
      <stop offset="1" stop-color="#009afc"/>
    </linearGradient>
    <linearGradient id="Dégradé_sans_nom_51" data-name="Dégradé sans nom 5" x1="349.5" y1="279.1" x2="149.79" y2="5.81" xlink:href="#Dégradé_sans_nom_5"/>
  </defs>
  <g>
    <path class="st0" d="M0,359.04v-55.72h28.57c6.79,0,11.86,1.67,15.2,5.01,2.39,2.39,3.58,5.44,3.58,9.15,0,5.78-2.87,9.92-8.6,12.42,3.61,1.17,6.35,2.84,8.24,5.01,1.88,2.18,2.83,5.09,2.83,8.76,0,4.78-1.86,8.53-5.57,11.26-3.71,2.73-8.89,4.1-15.52,4.1H0ZM15.04,325.54h9.71c4.88,0,7.32-1.67,7.32-5.01s-2.34-4.78-7-4.78h-10.03v9.79ZM15.04,346.63h11.94c4.93,0,7.4-1.75,7.4-5.25s-2.52-5.01-7.56-5.01h-11.78v10.27Z"/>
    <path class="st0" d="M52.45,359.04l23.72-56.11h14.88l23.72,56.11h-16.55l-4.06-9.95h-21.49l-3.98,9.95h-16.24ZM77.2,337.08h12.5l-6.21-15.84-6.29,15.84Z"/>
    <path class="st0" d="M127.5,359.04v-20.85l-21.17-34.86h17.59l11.46,20.3,11.54-20.3h17.27l-21.17,34.62v21.09h-15.52Z"/>
    <path class="st0" d="M182.58,359.04v-42.18h-16.71v-13.53h48.87v13.53h-16.71v42.18h-15.44Z"/>
    <path class="st0" d="M239.64,359.44l-22.6-56.11h17.27l12.65,35.26,12.65-35.26h16.95l-22.6,56.11h-14.33Z"/>
    <path class="st0" d="M284.93,359.04v-55.72h20.85c6.37,0,11.43,1.59,15.2,4.78,3.77,3.18,5.65,7.54,5.65,13.05s-2.08,10.27-6.25,13.45c-4.17,3.18-9.38,4.78-15.64,4.78h-13.53v19.66h-6.29ZM291.22,333.65h13.77c4.62,0,8.32-1.13,11.1-3.38,2.79-2.25,4.18-5.27,4.18-9.03s-1.34-6.86-4.02-8.95c-2.68-2.1-6.33-3.14-10.94-3.14h-14.09v24.51Z"/>
    <path class="st0" d="M338.1,359.04v-55.72h23.96c6.84,0,12.12,1.86,15.84,5.57,2.87,2.87,4.3,6.58,4.3,11.14s-1.38,8.07-4.14,10.82c-2.76,2.76-6.42,4.56-10.98,5.41l17.11,22.76h-7.72l-16.16-21.65h-15.92v21.65h-6.29ZM344.38,331.74h17.11c4.24,0,7.69-1.03,10.35-3.1,2.65-2.07,3.98-4.91,3.98-8.52s-1.26-6.14-3.78-8.08c-2.52-1.94-6.01-2.9-10.47-2.9h-17.19v22.6Z"/>
    <path class="st0" d="M441.96,351.52c-5.36,5.65-12.18,8.48-20.45,8.48s-15.07-2.81-20.38-8.44c-5.31-5.62-7.96-12.42-7.96-20.38s2.68-14.69,8.04-20.34c5.36-5.65,12.18-8.48,20.45-8.48s15.07,2.81,20.37,8.44c5.31,5.63,7.96,12.42,7.96,20.38s-2.68,14.68-8.04,20.34ZM405.95,347.5c4.16,4.46,9.4,6.69,15.72,6.69s11.53-2.21,15.64-6.65c4.11-4.43,6.17-9.88,6.17-16.36s-2.08-11.86-6.25-16.32c-4.17-4.46-9.41-6.69-15.72-6.69s-11.53,2.22-15.64,6.65c-4.11,4.43-6.17,9.88-6.17,16.36s2.08,11.86,6.25,16.32Z"/>
  </g>
  <path class="st0" d="M190.28,51.84h60.6c35-12.89,68.91-21.31,108.94-26.96-1.74-1.76-5.35-4.61-7.36-6.25C337.22,6.21,314.5,0,284.3,0h-137.41l-23.02,85.72h56.47l9.94-33.88Z"/>
  <g>
    <path class="st0" d="M291.96,131.28l-81.37-46.98c-1.26-.73-2.59-1.06-3.89-1.06-4.08,0-7.82,3.26-7.82,7.82v99.64c0,4.56,3.74,7.82,7.82,7.82,1.3,0,2.63-.33,3.89-1.06l81.37-46.98c7.39-4.27,7.39-14.93,0-19.2Z"/>
    <path class="st2" d="M321.3,40.4c1.7-.37,3.41-.74,5.11-1.09,0,0-1.8.3-5.11,1.09Z"/>
    <path class="st1" d="M426.15,18.12c-73.27,2.37-146.35,17.6-212.03,47.56,2.01.59,3.96,1.41,5.79,2.47l5.18,2.99c30.57-13.28,63.61-23.71,96.21-30.74,3.31-.79,5.11-1.09,5.11-1.09-1.7.35-3.4.72-5.11,1.09-12.07,2.89-44.29,12.41-83.03,38.35l63.01,36.38c9.17,5.29,14.87,15.16,14.87,25.75s-5.7,20.46-14.87,25.75l-81.37,46.98c-4.03,2.33-8.6,3.56-13.22,3.56-14.6,0-26.47-11.87-26.47-26.47v-63.23c-61.93,62.79-105.8,141.09-105.8,141.09,18.45.16,145.79.23,161.15,0,93.8,3.39,170.34-112.9,80.55-138.58,21.45-8.64,38.91-23.1,47.57-44.11,6.33-15.97,8.56-38.19.04-53.87,15.66-5.29,45.73-9.94,62.42-13.88Z"/>
  </g>
</svg>